<?xml version="1.0" encoding="utf-8"?>
<!-- Generator: Adobe Illustrator 27.5.0, SVG Export Plug-In . SVG Version: 6.00 Build 0)  -->
<svg version="1.1" xmlns="http://www.w3.org/2000/svg" xmlns:xlink="http://www.w3.org/1999/xlink" x="0px" y="0px"
	 viewBox="0 0 500 500" style="enable-background:new 0 0 500 500;" xml:space="preserve">
<g id="BACKGROUND">
	<rect style="fill:#293141;" width="500" height="500"/>
</g>
<g id="OBJECTS">
	<g>
		<g>
			<path style="fill:#E06B78;" d="M232.562,81.741c-15.189,2.126-29.982,6.2-44.198,12.213
				c-15.023,6.354-28.954,14.665-41.611,24.791c0.344,0.538,0.672,1.085,0.984,1.641c12.575-10.09,26.426-18.361,41.367-24.681
				c13.865-5.864,28.285-9.867,43.088-11.994C232.2,83.037,232.32,82.367,232.562,81.741z"/>
			<path style="fill:#E06B78;" d="M326.539,93.954c-17.264-7.302-35.379-11.752-54.021-13.31c0.08,0.625,0.057,1.272-0.063,1.902
				c18.409,1.549,36.296,5.947,53.344,13.158c17.636,7.459,33.755,17.635,48.046,30.315c0.572-0.349,1.157-0.676,1.751-0.984
				C361.029,112.015,344.569,101.579,326.539,93.954z"/>
			<path style="fill:#E06B78;" d="M266.665,432.85c-3.058,0.157-6.13,0.237-9.213,0.237c-23.705,0-46.701-4.643-68.348-13.798
				c-20.909-8.844-39.688-21.505-55.814-37.631c-16.126-16.126-28.787-34.905-37.631-55.814c-2.61-6.171-4.852-12.452-6.726-18.827
				h-1.979c1.925,6.628,4.242,13.157,6.953,19.568c8.94,21.136,21.737,40.117,38.037,56.418c16.3,16.3,35.282,29.098,56.417,38.037
				c21.883,9.256,45.127,13.949,69.088,13.949c3.136,0,6.26-0.082,9.37-0.243C266.766,434.113,266.713,433.481,266.665,432.85z"/>
			<path style="fill:#E06B78;" d="M336.1,414.525c-3.374,1.691-6.805,3.285-10.301,4.764c-15.369,6.5-31.419,10.717-47.918,12.621
				c0.061,0.632,0.121,1.265,0.18,1.897c16.692-1.922,32.93-6.191,48.478-12.768c3.571-1.51,7.075-3.139,10.52-4.868
				C336.72,415.634,336.397,415.087,336.1,414.525z"/>
			<path style="fill:#E06B78;" d="M380.464,382.792c-3.917,3.847-7.987,7.494-12.204,10.933c0.383,0.503,0.762,1.008,1.138,1.516
				c4.12-3.357,8.104-6.908,11.942-10.65C381.03,384,380.737,383.401,380.464,382.792z"/>
			<path style="fill:#E06B78;" d="M432.888,230.352h-1.924c1.381,8.918,2.078,17.978,2.078,27.145
				c0,23.705-4.643,46.7-13.798,68.348c-3.025,7.151-6.503,14.048-10.407,20.68c0.474,0.448,0.938,0.909,1.394,1.379
				c4.046-6.83,7.643-13.941,10.764-21.319c9.256-21.882,13.949-45.127,13.949-69.088
				C434.943,248.331,434.254,239.271,432.888,230.352z"/>
		</g>
		<g>
			<defs>
				<circle id="SVGID_1_" cx="255.268" cy="255.814" r="159.408"/>
			</defs>
			<clipPath id="SVGID_00000003063177187377416850000003984264988586780299_">
				<use xlink:href="#SVGID_1_"  style="overflow:visible;"/>
			</clipPath>
			
				<circle style="clip-path:url(#SVGID_00000003063177187377416850000003984264988586780299_);fill:#E06B78;" cx="255.268" cy="255.814" r="159.408"/>
			<path style="clip-path:url(#SVGID_00000003063177187377416850000003984264988586780299_);fill:#FFFFFF;" d="M258.159,313.569
				v101.187H75.717c3.274-44.076,24.443-84.962,51.465-98.446c15.51-7.74,32.112-7.298,48.359-8.9
				c16.247-1.602,33.177-5.797,46.222-21.033c4.636-5.415,8.697-12.14,13.817-16.356c7.187-5.918,16.172-6.159,23.485-0.632v72.061"
				/>
			<path style="clip-path:url(#SVGID_00000003063177187377416850000003984264988586780299_);fill:#36577D;" d="M193.237,381.482
				c-5.005-19.841-9.016-41.062-12.205-61.807c-0.636-4.133-1.225-8.38-1.727-12.692c-1.257,0.158-2.512,0.303-3.763,0.427
				c-16.247,1.602-32.85,1.161-48.359,8.9c-27.022,13.485-48.191,54.371-51.465,98.447h128.097
				C199.633,404.349,196.191,393.192,193.237,381.482z"/>
			<path style="clip-path:url(#SVGID_00000003063177187377416850000003984264988586780299_);fill:#456E95;" d="M137.529,319.879
				c1.22,10.594,2.916,21.054,5.099,31.263c2.388,11.166,3.728,16.088,7.238,26.669c4.324,13.034,9.591,25.362,15.493,36.945h38.456
				c-4.181-10.408-7.624-21.564-10.578-33.275c-5.005-19.841-9.016-41.062-12.205-61.807c-0.636-4.133-1.225-8.38-1.727-12.692
				c-1.257,0.158-2.512,0.303-3.763,0.427c-12.95,1.277-26.125,1.269-38.793,5.127C136.919,314.512,137.15,316.595,137.529,319.879z
				"/>
			<path style="clip-path:url(#SVGID_00000003063177187377416850000003984264988586780299_);fill:#FFFFFF;" d="M254.135,313.569
				v101.187h182.441c-3.274-44.076-24.443-84.962-51.465-98.446c-15.509-7.74-32.112-7.298-48.359-8.9
				c-16.247-1.602-33.177-5.797-46.223-21.033c-4.636-5.415-8.697-12.14-13.817-16.356c-7.187-5.918-16.172-6.159-23.485-0.632
				v72.061"/>
			<path style="clip-path:url(#SVGID_00000003063177187377416850000003984264988586780299_);fill:#36577D;" d="M319.057,381.482
				c5.005-19.841,9.016-41.062,12.205-61.807c0.636-4.133,1.225-8.38,1.727-12.692c1.257,0.158,2.512,0.303,3.763,0.427
				c16.247,1.602,32.85,1.161,48.359,8.9c27.022,13.485,48.191,54.371,51.465,98.447H308.48
				C312.661,404.349,316.103,393.192,319.057,381.482z"/>
			<path style="clip-path:url(#SVGID_00000003063177187377416850000003984264988586780299_);fill:#456E95;" d="M374.765,319.879
				c-1.22,10.594-2.916,21.054-5.099,31.263c-2.388,11.166-3.728,16.088-7.238,26.669c-4.324,13.034-9.591,25.362-15.493,36.945
				H308.48c4.181-10.408,7.624-21.564,10.577-33.275c5.005-19.841,9.016-41.062,12.205-61.807c0.636-4.133,1.225-8.38,1.727-12.692
				c1.257,0.158,2.512,0.303,3.763,0.427c12.95,1.277,26.125,1.269,38.793,5.127C375.375,314.512,375.144,316.595,374.765,319.879z"
				/>
			<path style="clip-path:url(#SVGID_00000003063177187377416850000003984264988586780299_);fill:#36577D;" d="M370.009,366.897
				c-5.038-5.24-10.075-10.479-15.112-15.719c5.351,13.513,9.703,27.995,12.939,43.063
				C369.915,382.944,369.167,378.579,370.009,366.897z"/>
			
				<rect x="220.633" y="243.686" transform="matrix(-1 -1.224647e-16 1.224647e-16 -1 514.3877 585.4574)" style="clip-path:url(#SVGID_00000003063177187377416850000003984264988586780299_);fill:#8499A2;" width="73.123" height="98.085"/>
			<path style="clip-path:url(#SVGID_00000003063177187377416850000003984264988586780299_);fill:#303D46;" d="M228.094,339.101
				c23.681-9.169,47.584-21.858,65.661-44.822v-50.593h-73.123v98.085h0.288C223.317,340.906,225.71,340.024,228.094,339.101z"/>
			<path style="clip-path:url(#SVGID_00000003063177187377416850000003984264988586780299_);fill:#36577D;" d="M142.285,366.897
				c5.037-5.24,10.075-10.479,15.112-15.719c-5.351,13.513-9.702,27.995-12.939,43.063
				C142.379,382.944,143.127,378.579,142.285,366.897z"/>
			<path style="clip-path:url(#SVGID_00000003063177187377416850000003984264988586780299_);fill:#303D46;" d="M258.646,375.684
				h-1.625c-9.338,0-16.979-7.641-16.979-16.979v-5.232c0-9.338,7.64-16.979,16.979-16.979h1.625c9.338,0,16.979,7.64,16.979,16.979
				v5.232C275.624,368.044,267.984,375.684,258.646,375.684z"/>
			<path style="clip-path:url(#SVGID_00000003063177187377416850000003984264988586780299_);fill:#D3DCDE;" d="M296.141,286.369
				l-2.75-0.031c-0.631,3.747-1.358,7.458-2.218,11.111c-2.554,10.848-6.392,21.549-12.667,28.721
				c-6.734,7.696-15.611,10.09-23.95,8.311c-9.223-1.967-16.726-9.475-22.358-20.166c-4.699-8.919-8.153-19.033-11.948-28.809
				l-4.158-0.047l0.453,93.917c14.657-4.281,28.21-13.145,37.694-34.675c1.346-3.055,3.794-2.549,4.628,1.018
				c4.845,20.723,19.792,28.507,31.659,31.964c2.51,0.731,5.079,1.317,7.679,1.748L296.141,286.369z"/>
			<path style="clip-path:url(#SVGID_00000003063177187377416850000003984264988586780299_);fill:#303D46;" d="M248.938,370.677
				c0,6.844-8.211,67.073-8.211,67.073h36.267l-13.686-71.179L248.938,370.677z"/>
		</g>
		<path style="fill:#8499A2;" d="M228.724,145.943c5.389,18.674-5.39,37.348-5.39,56.023
			C223.334,183.291,234.113,164.617,228.724,145.943c-4.323,22.469-12.15,53.905-34.535,67.893v-65.557
			c0-30.781,29.074-55.964,64.607-55.964h0.001c35.534,0,64.607,25.184,64.607,55.964v115.066c0,30.781-29.073,55.964-64.607,55.964
			h-0.001c-35.534,0-64.607-25.184-64.607-55.964v-49.509C216.574,199.848,224.4,168.412,228.724,145.943z"/>
		<path style="fill:#9FB6BE;" d="M258.798,92.315h-0.001c-0.093,0-0.186,0.003-0.279,0.003v226.989c0.093,0,0.186,0.003,0.279,0.003
			h0.001c35.534,0,64.607-25.184,64.607-55.964V148.279C323.405,117.499,294.332,92.315,258.798,92.315z"/>
		<path style="fill:#303D46;" d="M207.726,258.831c10.624,1.368,21.47-5.586,32.028-7.222c5.411-0.839,10.737-1.646,16.227-1.043
			c5.258,0.577,10.308,2.176,15.311,3.802c11.814,3.839,23.899,4.514,36.036,1.69c5.53-1.287,10.872-3.153,16.077-5.355V147.357
			c0-30.274-29.073-55.042-64.607-55.042h-0.001c-35.534,0-64.607,24.769-64.607,55.042v108.453
			C198.572,257.243,203.118,258.238,207.726,258.831z"/>
		<path style="fill:#303D46;" d="M323.495,266.952v-58.033c4.447-4.197,11.387-10.103,17.448-8.69
			c5.184,1.208,8.268,6.437,9.324,11.454c1.922,9.128-1.085,19.081-7.797,25.808c-1.272,1.275-2.704,2.492-3.393,4.129
			c-1.087,2.582-0.066,5.477,0.21,8.249C340.002,257.033,330.996,266.952,323.495,266.952z"/>
		<path style="fill:#303D46;" d="M194.188,265.583V210.54c-4.047-3.981-10.363-9.582-15.879-8.242
			c-4.718,1.146-7.524,6.105-8.486,10.864c-1.749,8.658,0.987,18.098,7.096,24.478c1.158,1.209,2.461,2.364,3.088,3.916
			c0.989,2.449,0.06,5.195-0.191,7.824C179.165,256.176,187.361,265.583,194.188,265.583z"/>
		<g>
			<g>
				<path style="fill:#456E95;" d="M337.199,128.967c0,0.8-0.01,1.601-0.034,2.395c-0.007,0.233-0.014,0.462-0.024,0.695
					c-0.021,0.561-0.044,1.119-0.079,1.676c-0.014,0.263-0.031,0.523-0.048,0.787c-0.031,0.486-0.069,0.972-0.109,1.451
					c-0.017,0.212-0.034,0.421-0.055,0.63c-0.007,0.085-0.017,0.171-0.024,0.257c-0.041,0.428-0.086,0.849-0.13,1.273
					c-0.099,0.872-0.209,1.738-0.332,2.597c-0.034,0.243-0.072,0.486-0.109,0.725c-0.024,0.154-0.048,0.308-0.072,0.462
					c-0.044,0.281-0.089,0.558-0.137,0.835c-0.14,0.821-0.291,1.635-0.455,2.443c-0.058,0.284-0.116,0.564-0.178,0.845
					c-0.058,0.27-0.116,0.541-0.178,0.811c-0.065,0.294-0.133,0.589-0.202,0.879c-0.058,0.243-0.116,0.486-0.178,0.729
					c-0.068,0.281-0.14,0.558-0.212,0.835c-0.065,0.253-0.133,0.503-0.202,0.756c-0.069,0.26-0.14,0.52-0.212,0.78
					c-0.086,0.288-0.168,0.575-0.25,0.859c-0.147,0.496-0.298,0.989-0.455,1.478c-0.082,0.257-0.164,0.51-0.246,0.766
					c-0.086,0.253-0.171,0.506-0.257,0.76c-0.086,0.246-0.171,0.493-0.257,0.739c-0.359,1.009-0.736,2.005-1.132,2.983
					c-0.294,0.729-0.602,1.451-0.92,2.162c-0.315,0.712-0.64,1.413-0.982,2.108c-0.113,0.229-0.226,0.462-0.342,0.691
					c-0.113,0.226-0.229,0.455-0.346,0.681c-1.05,2.042-2.19,3.993-3.418,5.847c-0.342,0.519-0.693,1.028-1.048,1.531
					c-0.072,0.103-0.145,0.204-0.218,0.307c-0.336,0.47-0.677,0.935-1.024,1.391c-0.019,0.025-0.038,0.051-0.057,0.076
					c-0.396,0.519-0.799,1.027-1.209,1.527c-0.008,0.01-0.016,0.019-0.024,0.028c-0.393,0.479-0.794,0.948-1.199,1.409
					c-0.019,0.022-0.038,0.045-0.057,0.067v-0.002c-8.089,9.161-18.558,14.69-29.999,14.69c-12.923,0-24.614-7.058-33.027-18.438
					c-6.22,9.125-14.452,15.762-23.762,18.66c-3.397,1.057-6.939,1.615-10.579,1.615c-1.505,0-2.994-0.096-4.465-0.284
					c-5.331-0.677-10.398-2.563-15.047-5.443c-0.739-0.458-1.468-0.941-2.186-1.451c-0.229-0.164-0.458-0.329-0.684-0.496
					c-0.229-0.168-0.455-0.335-0.681-0.51c-0.01-0.007-0.02-0.017-0.034-0.024c-0.212-0.164-0.424-0.332-0.637-0.5
					c-0.445-0.352-0.886-0.718-1.321-1.091c-0.205-0.178-0.411-0.356-0.612-0.534c-0.246-0.222-0.496-0.445-0.739-0.671
					c-0.192-0.178-0.383-0.359-0.575-0.541c-0.188-0.181-0.376-0.363-0.564-0.551c-0.226-0.222-0.452-0.448-0.678-0.681
					c-0.205-0.209-0.41-0.421-0.612-0.636c-0.226-0.24-0.455-0.486-0.684-0.736c-0.168-0.188-0.339-0.38-0.51-0.575
					c-0.195-0.222-0.39-0.445-0.585-0.674c-0.195-0.226-0.387-0.455-0.578-0.688c0-0.003-0.003-0.007-0.01-0.01
					c-0.174-0.215-0.352-0.431-0.527-0.65c-0.072-0.092-0.147-0.188-0.222-0.281v-0.003c-0.123-0.154-0.246-0.311-0.366-0.469
					c-0.739-0.958-1.454-1.947-2.145-2.97c-0.157-0.233-0.315-0.469-0.469-0.705c-0.523-0.801-1.033-1.615-1.526-2.45
					c-0.161-0.27-0.318-0.541-0.476-0.818c-0.089-0.157-0.178-0.315-0.267-0.472c-0.106-0.188-0.212-0.38-0.318-0.575
					c-0.003-0.003-0.003-0.007-0.007-0.01c-0.216-0.397-0.431-0.797-0.64-1.204c-0.339-0.65-0.667-1.31-0.985-1.978
					c-0.137-0.284-0.27-0.568-0.404-0.855c-0.274-0.599-0.541-1.201-0.801-1.81c-0.13-0.301-0.257-0.606-0.38-0.907
					c-0.161-0.39-0.315-0.783-0.469-1.174c-0.089-0.222-0.174-0.448-0.257-0.671c-0.12-0.311-0.233-0.623-0.346-0.934
					c-0.113-0.315-0.226-0.63-0.335-0.944c-0.215-0.616-0.421-1.239-0.619-1.868c-0.003-0.014-0.01-0.031-0.014-0.048
					c-0.103-0.318-0.202-0.64-0.298-0.961c-0.195-0.65-0.383-1.307-0.565-1.971c-0.079-0.284-0.154-0.571-0.229-0.862
					c-0.24-0.924-0.465-1.861-0.671-2.806c-0.038-0.167-0.075-0.335-0.109-0.506c-0.133-0.629-0.26-1.259-0.38-1.895
					c-0.065-0.346-0.127-0.691-0.188-1.037c-0.174-1.013-0.332-2.032-0.469-3.062c-0.014-0.103-0.027-0.205-0.041-0.308v-0.007
					c-0.044-0.328-0.086-0.657-0.123-0.985c-0.021-0.195-0.044-0.39-0.065-0.585c-0.055-0.479-0.103-0.965-0.147-1.451
					c-0.031-0.345-0.062-0.691-0.089-1.037c-0.051-0.626-0.092-1.256-0.127-1.889c-0.014-0.229-0.027-0.462-0.038-0.695
					c0-0.024-0.003-0.048-0.003-0.075c-0.014-0.25-0.024-0.496-0.031-0.746c-0.003-0.062-0.007-0.12-0.007-0.181
					c-0.01-0.264-0.017-0.527-0.024-0.79c-0.01-0.346-0.017-0.691-0.024-1.037c-0.003-0.393-0.007-0.787-0.007-1.18
					c0-0.393,0.003-0.787,0.007-1.18c0.007-0.346,0.014-0.691,0.024-1.037c0.007-0.264,0.014-0.527,0.024-0.79
					c0-0.062,0.003-0.12,0.007-0.181c0.007-0.25,0.017-0.496,0.031-0.746c0-0.027,0.003-0.051,0.003-0.075
					c0.01-0.233,0.024-0.465,0.038-0.694c0.034-0.633,0.075-1.263,0.127-1.889c0.027-0.346,0.058-0.691,0.089-1.037
					c0.044-0.486,0.092-0.972,0.147-1.451c0.021-0.195,0.044-0.39,0.065-0.585c0.027-0.236,0.058-0.476,0.089-0.712
					c0.024-0.199,0.048-0.393,0.075-0.589c0.137-1.03,0.294-2.049,0.469-3.062c0.062-0.346,0.123-0.691,0.188-1.037
					c0.12-0.636,0.246-1.266,0.38-1.896c0.034-0.171,0.072-0.339,0.109-0.506c0.205-0.944,0.431-1.882,0.671-2.806
					c0.075-0.291,0.15-0.578,0.229-0.862c0.181-0.664,0.369-1.321,0.565-1.971c0.096-0.322,0.195-0.643,0.298-0.961
					c0.003-0.017,0.01-0.034,0.014-0.048c0.096-0.308,0.195-0.612,0.298-0.914c0.103-0.322,0.212-0.636,0.322-0.955
					c0.109-0.315,0.222-0.63,0.335-0.944c0.113-0.311,0.226-0.623,0.346-0.934c0.082-0.222,0.168-0.448,0.257-0.671
					c0.154-0.39,0.308-0.784,0.469-1.174c0.123-0.301,0.25-0.605,0.38-0.907c0.12-0.281,0.24-0.558,0.363-0.835
					c0.144-0.325,0.291-0.65,0.438-0.975c0.133-0.287,0.267-0.571,0.404-0.855c0.318-0.667,0.647-1.327,0.985-1.978
					c0.209-0.407,0.424-0.807,0.64-1.204c0.003-0.004,0.003-0.007,0.007-0.01c0.106-0.195,0.212-0.387,0.318-0.575
					c0.089-0.157,0.178-0.315,0.267-0.472c0.157-0.277,0.315-0.548,0.476-0.818c0.493-0.835,1.003-1.649,1.526-2.45
					c0.154-0.236,0.311-0.472,0.469-0.705c0.691-1.023,1.406-2.012,2.145-2.97c0.168-0.219,0.335-0.435,0.506-0.647
					c0.027-0.034,0.055-0.068,0.082-0.106c0.174-0.219,0.352-0.434,0.527-0.65c0.007-0.003,0.01-0.007,0.01-0.01
					c0.192-0.233,0.383-0.462,0.578-0.688c0.195-0.229,0.39-0.452,0.585-0.674c0.171-0.195,0.342-0.387,0.51-0.575
					c0.229-0.25,0.458-0.496,0.684-0.736c0.202-0.216,0.407-0.428,0.612-0.636c0.226-0.233,0.452-0.458,0.678-0.681
					c0.188-0.188,0.376-0.369,0.564-0.551c0.192-0.181,0.383-0.363,0.575-0.541c0.243-0.226,0.493-0.448,0.739-0.671
					c0.202-0.178,0.407-0.356,0.612-0.534c0.435-0.373,0.876-0.739,1.321-1.091c0.212-0.168,0.424-0.336,0.637-0.5
					c0.014-0.007,0.024-0.017,0.034-0.024c0.226-0.174,0.452-0.342,0.681-0.51c0.226-0.168,0.455-0.332,0.684-0.496
					c6.477-4.585,13.86-7.178,21.699-7.178c1.434,0,2.85,0.086,4.249,0.257c11.229,1.362,21.302,8.061,28.781,18.178
					c3.541-5.197,7.739-9.59,12.416-12.94c6.528-4.681,13.993-7.335,21.921-7.335c11.438,0,21.911,5.526,29.999,14.685
					c0.157,0.178,0.311,0.356,0.469,0.537c0.154,0.181,0.308,0.363,0.462,0.544c0.458,0.551,0.91,1.112,1.355,1.683
					c0.147,0.192,0.294,0.383,0.438,0.575c0.294,0.387,0.582,0.777,0.862,1.177c0.144,0.198,0.284,0.4,0.424,0.599
					c0.14,0.202,0.277,0.404,0.417,0.609c0.137,0.202,0.274,0.407,0.411,0.613c0.137,0.205,0.27,0.414,0.404,0.623
					c0.133,0.209,0.267,0.418,0.4,0.63c0.13,0.209,0.26,0.421,0.39,0.633c0.517,0.842,1.013,1.701,1.492,2.58
					c0.003,0.01,0.01,0.024,0.017,0.034c0.212,0.39,0.421,0.784,0.63,1.18c0.144,0.281,0.287,0.564,0.431,0.849
					c0.116,0.229,0.229,0.462,0.342,0.691c0.332,0.677,0.654,1.368,0.965,2.066c0.024,0.055,0.048,0.109,0.072,0.164
					c0.287,0.643,0.564,1.293,0.831,1.954c0.407,1.006,0.797,2.029,1.167,3.069c0.086,0.246,0.171,0.493,0.257,0.739
					c0.085,0.253,0.171,0.506,0.257,0.76c0.092,0.281,0.181,0.564,0.274,0.848c0.147,0.462,0.291,0.927,0.428,1.396
					c0.082,0.284,0.164,0.571,0.25,0.859c0.072,0.26,0.144,0.52,0.212,0.78c0.068,0.253,0.137,0.503,0.202,0.756
					c0.072,0.277,0.144,0.554,0.212,0.835c0.062,0.243,0.12,0.486,0.178,0.729c0.068,0.291,0.137,0.585,0.202,0.879
					c0.062,0.27,0.12,0.541,0.178,0.811c0.061,0.281,0.12,0.561,0.178,0.845c0.164,0.808,0.315,1.622,0.455,2.443
					c0.048,0.277,0.092,0.554,0.137,0.835c0.024,0.154,0.048,0.308,0.072,0.462c0.038,0.24,0.075,0.482,0.109,0.725
					c0.123,0.859,0.233,1.724,0.332,2.597c0.044,0.424,0.089,0.845,0.13,1.273c0.007,0.086,0.017,0.171,0.024,0.257
					c0.021,0.209,0.038,0.417,0.055,0.63c0.041,0.479,0.079,0.965,0.109,1.451c0.017,0.246,0.031,0.489,0.044,0.736
					c0.034,0.575,0.061,1.15,0.082,1.728c0.01,0.233,0.017,0.462,0.024,0.695C337.189,127.366,337.199,128.166,337.199,128.967z"/>
				<path style="fill:#36577D;" d="M320.787,81.697v94.54c10.038-11.365,16.411-28.322,16.411-47.27S330.825,93.062,320.787,81.697z
					"/>
				<path style="fill:#36577D;" d="M201.722,76.032c-14.696,10.398-24.709,31.024-24.709,54.775
					c0,23.751,10.013,44.377,24.709,54.775V76.032z"/>
				<rect x="177.188" y="124.15" style="fill:#588AB1;" width="160.27" height="85.082"/>
				<rect x="191.469" y="124.15" style="fill:#71B1DA;" width="42.532" height="85.082"/>
				<rect x="203.909" y="124.15" style="fill:#83CBEC;" width="15.046" height="85.082"/>
				<path style="fill:#456E95;" d="M371.665,225.526H143.55c-8.147,0-14.813-6.666-14.813-14.813l0,0
					c0-8.147,6.666-14.813,14.813-14.813h228.115c8.147,0,14.813,6.666,14.813,14.813l0,0
					C386.478,218.86,379.812,225.526,371.665,225.526z"/>
				<path style="fill:#36577D;" d="M262.623,195.9H143.55c-8.147,0-14.813,6.666-14.813,14.813c0,8.147,6.666,14.813,14.813,14.813
					h119.073V195.9z"/>
				<path style="fill:#36577D;" d="M371.665,195.9h-33.771v29.625h33.771c8.147,0,14.813-6.666,14.813-14.813
					C386.478,202.566,379.812,195.9,371.665,195.9z"/>
			</g>
			<path style="fill:#36577D;" d="M270.15,83.394c0,15.116-10.264,27.371-22.923,27.371c-12.659,0-22.923-12.255-22.923-27.371
				c0-5.235,1.232-10.127,3.367-14.284c11.229,1.362,21.302,8.061,28.781,18.178c3.541-5.197,7.739-9.59,12.416-12.94
				C269.699,77.181,270.15,80.222,270.15,83.394z"/>
		</g>
		<g>
			<path style="fill:#303D46;" d="M238.364,262.579c0.631,1.918,1.977,3.354,3.794,4.23c2.002,0.965,4.137,1.112,6.264,1.635
				c0.823,0.202,1.583,0.411,2.199,1.007c0.662,0.64,1.149,1.432,1.837,2.052c1.425,1.285,3.321,1.859,5.222,1.859
				c1.918-0.001,3.777-0.572,5.153-1.945c0.65-0.648,1.092-1.477,1.922-1.926c0.676-0.365,1.468-0.507,2.22-0.636
				c3.85-0.662,7.83-0.94,9.502-5.077c0.451-1.116-0.491-2.447-1.555-2.74c-1.272-0.35-2.287,0.436-2.74,1.556
				c-0.408,1.01-2.163,1.326-3.071,1.501c-1.443,0.278-2.923,0.316-4.352,0.68c-1.495,0.381-2.915,1.092-3.984,2.221
				c-1.031,1.088-1.477,1.917-3.095,1.912c-1.387-0.005-2.147-0.532-3.015-1.568c-1.043-1.244-2.081-2.157-3.617-2.749
				c-1.746-0.672-3.629-0.768-5.428-1.231c-1.089-0.28-2.57-0.78-2.959-1.964C241.768,258.685,237.465,259.845,238.364,262.579
				L238.364,262.579z"/>
		</g>
		<g>
			<path style="fill:#303D46;" d="M251.189,276.209c-5.833,1.987-11.666,3.973-17.499,5.96c-3.109,1.059-1.774,6.018,1.364,4.949
				c5.833-1.987,11.666-3.973,17.499-5.96C255.662,280.099,254.327,275.141,251.189,276.209L251.189,276.209z"/>
		</g>
		<g>
			<path style="fill:#303D46;" d="M264.993,281.724c5.948,1.609,11.897,3.219,17.845,4.828c3.192,0.864,4.554-4.086,1.364-4.949
				c-5.948-1.609-11.897-3.219-17.845-4.828C263.166,275.912,261.804,280.861,264.993,281.724L264.993,281.724z"/>
		</g>
		<path style="fill:#303D46;" d="M256.92,301.166v0.014c-3.401-0.37-6.959-1.488-9.775-2.833c0.182,0.087,0.458,0.841,0.569,1.016
			c0.525,0.829,1.151,1.597,1.836,2.299c2.165,2.22,5.178,3.949,8.235,4.548c4.802,0.941,11.236-3.518,13.16-7.89
			C266.91,300.245,261.361,301.699,256.92,301.166z"/>
		<g>
			<path style="fill:#303D46;" d="M246.087,294.04c1.986-0.793,4.095-1.719,6.258-1.826c2.156-0.107,4.168,0.529,6.334,0.136
				c1.022-0.185,2.032-0.627,3.064-0.735c0.839-0.088,1.576,0.204,2.328,0.537c2.267,1.003,4.189,1.84,6.717,1.344
				c3.183-0.625,1.836-5.489-1.341-4.865c-0.87,0.171-1.841-0.375-2.601-0.728c-1.02-0.473-2.065-0.984-3.179-1.189
				c-2.237-0.412-4.073,0.457-6.233,0.753c-2.018,0.277-4.051-0.448-6.105-0.203c-2.307,0.275-4.438,1.055-6.583,1.911
				c-1.264,0.505-2.152,1.685-1.762,3.103C243.315,293.48,244.815,294.548,246.087,294.04L246.087,294.04z"/>
		</g>
		<path style="fill:#303D46;" d="M257.509,288.767c-0.223-0.057-0.446-0.113-0.669-0.171c-4.365-1.133-8.562-1.903-12.754-0.936
			l-36.215,26.526c-1.822,1.334-2.22,3.917-0.886,5.738l1.214,1.657c1.334,1.822,3.917,2.22,5.738,0.886l42.236-30.936
			c0.892-0.653,1.44-1.606,1.614-2.622C257.695,288.861,257.601,288.816,257.509,288.767z"/>
		<path style="fill:#E06B78;" d="M207.101,315.288c-0.081-0.008-0.153-0.028-0.222-0.052c-0.916,1.393-0.933,3.27,0.106,4.689
			l1.214,1.657c1.225,1.672,3.5,2.141,5.275,1.175C212.772,319.107,211.076,315.697,207.101,315.288z"/>
		<g>
			<path style="fill:#D3DCDE;" d="M168.632,265.511L66.5,264.55c-2.339-0.02-4.244-1.945-4.232-4.277
				c0.019-3.869,1.269-5.145,5.027-5.089c3.009,0.045,6.018,0.057,9.027,0.085c4.666,0.044,9.332,0.088,13.998,0.132
				c2.343,0.021,4.268-1.866,4.28-4.199l0.006-0.903c0.016-2.332-1.89-4.258-4.232-4.279c-6.565-0.061-13.14-0.46-19.691-0.516
				c-2.339-0.02-4.245-1.946-4.229-4.277c0.011-2.33,1.937-4.22,4.28-4.199l83.002,0.781c2.342,0.021,4.248,1.947,4.232,4.278
				c-0.028,4.256-4.634,4.12-7.736,4.257c-2.342-0.021-4.268,1.866-4.28,4.199l-0.006,0.902c-0.012,2.333,1.893,4.259,4.232,4.279
				c4.555,0.043,9.11,0.085,13.665,0.129c3.319,0.032,9.11-1.125,9.079,3.87l-0.009,1.589
				C172.9,263.642,170.974,265.533,168.632,265.511z"/>
			<path style="fill:#FFFFFF;" d="M180.231,293.024l-29.898,0.294c-2.929,0.029-5.359-2.335-5.399-5.252l0,0
				c-0.04-2.918,2.324-5.328,5.254-5.357l29.897-0.294c2.93-0.029,5.359,2.335,5.399,5.253l0,0
				C185.525,290.584,183.161,292.995,180.231,293.024z"/>
			<path style="fill:#FFFFFF;" d="M110.463,229.064l-34.407-0.18c-3.371-0.018-6.126-2.78-6.121-6.137l0,0
				c0.005-3.358,2.767-6.091,6.138-6.073l34.407,0.18c3.371,0.018,6.126,2.78,6.121,6.138l0,0
				C116.596,226.349,113.834,229.082,110.463,229.064z"/>
			<path style="fill:#FFFFFF;" d="M177.128,277.18l-44.941,0.442c-4.403,0.043-8.055-3.509-8.116-7.895l0,0
				c-0.06-4.386,3.494-8.009,7.897-8.053l44.941-0.442c4.404-0.043,8.055,3.51,8.116,7.895v0
				C185.085,273.513,181.531,277.136,177.128,277.18z"/>
			<path style="fill:#FFFFFF;" d="M192.661,298.814h-0.429c-1.888,0-3.433-1.545-3.433-3.433v-0.429
				c0-1.888,1.545-3.433,3.433-3.433h0.429c1.888,0,3.433,1.545,3.433,3.433v0.429C196.094,297.269,194.549,298.814,192.661,298.814
				z"/>
			<path style="fill:#FFFFFF;" d="M114.751,276.141h-0.361c-1.59,0-2.891-1.301-2.891-2.891v-0.361c0-1.59,1.301-2.891,2.891-2.891
				h0.361c1.59,0,2.891,1.301,2.891,2.891v0.361C117.642,274.84,116.341,276.141,114.751,276.141z"/>
			<path style="fill:#D3DCDE;" d="M60.73,239.48v0.518c0,2.279-1.865,4.144-4.144,4.144h-0.517c-2.279,0-4.144-1.865-4.144-4.144
				v-0.518c0-2.279,1.865-4.143,4.144-4.143h0.517C58.865,235.337,60.73,237.202,60.73,239.48z"/>
		</g>
		<polygon style="fill:#FFFFFF;" points="83.608,171.491 85.919,175.716 90.145,178.027 85.919,180.338 83.608,184.564 
			81.297,180.338 77.072,178.027 81.297,175.716 		"/>
		<polygon style="fill:#FFFFFF;" points="424.537,169.424 427.915,175.6 434.09,178.978 427.915,182.355 424.537,188.531 
			421.159,182.355 414.983,178.978 421.159,175.6 		"/>
		<polygon style="fill:#FFFFFF;" points="139.294,179.888 140.651,182.369 143.132,183.726 140.651,185.083 139.294,187.564 
			137.937,185.083 135.456,183.726 137.937,182.369 		"/>
		<polygon style="fill:#FFFFFF;" points="119.102,290 120.77,293.05 123.82,294.718 120.77,296.386 119.102,299.436 
			117.434,296.386 114.384,294.718 117.434,293.05 		"/>
		<polygon style="fill:#FFFFFF;" points="159.199,152.167 160.868,155.216 163.917,156.884 160.868,158.552 159.199,161.602 
			157.531,158.552 154.482,156.884 157.531,155.216 		"/>
		<polygon style="fill:#FFFFFF;" points="367.41,161.113 369.094,164.404 372.288,166.267 368.996,167.951 367.133,171.145 
			365.449,167.853 362.256,165.99 365.547,164.306 		"/>
		<polygon style="fill:#FFFFFF;" points="360.116,250.962 362.693,255.674 367.405,258.251 362.693,260.828 360.116,265.54 
			357.539,260.828 352.827,258.251 357.539,255.674 		"/>
		<polygon style="fill:#FFFFFF;" points="393.439,232.357 395.158,235.499 398.3,237.217 395.158,238.936 393.439,242.078 
			391.721,238.936 388.579,237.217 391.721,235.499 		"/>
		<polygon style="fill:#FFFFFF;" points="110.818,128.175 114.354,134.691 120.819,138.256 114.354,141.82 110.818,148.337 
			107.282,141.82 100.817,138.256 107.282,134.691 		"/>
		<polygon style="fill:#FFFFFF;" points="404.408,137.884 406.309,141.389 409.786,143.305 406.309,145.222 404.408,148.727 
			402.506,145.222 399.03,143.305 402.506,141.389 		"/>
		<polygon style="fill:#FFFFFF;" points="123.692,393.734 126.358,398.647 131.232,401.334 126.358,404.022 123.692,408.935 
			121.026,404.022 116.152,401.334 121.026,398.647 		"/>
		<polygon style="fill:#FFFFFF;" points="389.269,404.496 391.17,408 394.647,409.917 391.17,411.834 389.269,415.339 
			387.367,411.834 383.891,409.917 387.367,408 		"/>
		<polygon style="fill:#FFFFFF;" points="99.753,101.218 100.967,103.456 103.187,104.679 100.967,105.903 99.753,108.141 
			98.539,105.903 96.319,104.679 98.539,103.456 		"/>
		<polygon style="fill:#FFFFFF;" points="72.025,141.084 73.239,143.321 75.459,144.545 73.239,145.769 72.025,148.007 
			70.811,145.769 68.591,144.545 70.811,143.321 		"/>
		<polygon style="fill:#FFFFFF;" points="353.035,399.79 354.25,402.027 356.47,403.251 354.25,404.475 353.035,406.713 
			351.821,404.475 349.602,403.251 351.821,402.027 		"/>
		<polygon style="fill:#FFFFFF;" points="416.548,378.333 417.762,380.57 419.982,381.794 417.762,383.018 416.548,385.256 
			415.334,383.018 413.114,381.794 415.334,380.57 		"/>
		<polygon style="fill:#FFFFFF;" points="435.933,114.35 437.147,116.588 439.367,117.811 437.147,119.035 435.933,121.273 
			434.719,119.035 432.499,117.811 434.719,116.588 		"/>
		<polygon style="fill:#FFFFFF;" points="84.899,393.416 86.113,395.654 88.333,396.878 86.113,398.102 84.899,400.339 
			83.685,398.102 81.465,396.878 83.685,395.654 		"/>
		<polygon style="fill:#FFFFFF;" points="89.902,366.81 91.116,369.047 93.336,370.271 91.116,371.495 89.902,373.733 
			88.688,371.495 86.468,370.271 88.688,369.047 		"/>
		<polygon style="fill:#FFFFFF;" points="383.829,84.652 388.095,93.198 396.263,98.071 387.782,102.376 382.943,110.611 
			378.677,102.065 370.509,97.192 378.99,92.887 		"/>
		<polygon style="fill:#FFFFFF;" points="394.653,269.177 397.155,274.122 401.93,276.935 396.985,279.438 394.171,284.212 
			391.669,279.267 386.895,276.453 391.84,273.951 		"/>
		<polygon style="fill:#FFFFFF;" points="371.869,291.342 372.901,293.228 374.786,294.259 372.901,295.29 371.869,297.176 
			370.838,295.29 368.952,294.259 370.838,293.228 		"/>
		<circle style="fill:#E06B78;" cx="400.302" cy="370.525" r="3.147"/>
		<path style="fill:#E06B78;" d="M73.905,293.86c0,1.422-1.153,2.574-2.575,2.574c-1.422,0-2.575-1.153-2.575-2.574
			s1.153-2.575,2.575-2.575C72.752,291.285,73.905,292.438,73.905,293.86z"/>
		<path style="fill:#E06B78;" d="M103.083,399.417c0,0.632-0.512,1.144-1.144,1.144c-0.632,0-1.144-0.512-1.144-1.144
			c0-0.632,0.512-1.144,1.144-1.144C102.571,398.273,103.083,398.785,103.083,399.417z"/>
		<circle style="fill:#E06B78;" cx="430.339" cy="142.533" r="2.289"/>
		<path style="fill:#E06B78;" d="M408.598,117.359c0,0.632-0.512,1.144-1.144,1.144c-0.632,0-1.144-0.512-1.144-1.144
			c0-0.632,0.512-1.144,1.144-1.144C408.086,116.215,408.598,116.727,408.598,117.359z"/>
		<path style="fill:#E06B78;" d="M448.075,177.146c0,0.474-0.384,0.858-0.858,0.858c-0.474,0-0.858-0.384-0.858-0.858
			c0-0.474,0.384-0.858,0.858-0.858C447.69,176.288,448.075,176.673,448.075,177.146z"/>
		<path style="fill:#E06B78;" d="M445.214,97.907c0,1.58-1.281,2.861-2.861,2.861c-1.58,0-2.861-1.281-2.861-2.861
			c0-1.58,1.281-2.861,2.861-2.861C443.933,95.046,445.214,96.327,445.214,97.907z"/>
		<circle style="fill:#E06B78;" cx="124.252" cy="91.614" r="2.289"/>
		<path style="fill:#E06B78;" d="M84.203,127.944c0,0.79-0.64,1.43-1.43,1.43c-0.79,0-1.43-0.64-1.43-1.43
			c0-0.79,0.64-1.43,1.43-1.43C83.562,126.513,84.203,127.154,84.203,127.944z"/>
		<path style="fill:#E06B78;" d="M56.169,155.406c0,1.106-0.896,2.002-2.002,2.002c-1.106,0-2.002-0.896-2.002-2.002
			s0.896-2.003,2.002-2.003C55.272,153.403,56.169,154.3,56.169,155.406z"/>
		<circle style="fill:#E06B78;" cx="103.083" cy="170.567" r="1.716"/>
	</g>
</g>
</svg>
